<?xml version="1.0" standalone="no"?>
<!DOCTYPE svg PUBLIC "-//W3C//DTD SVG 20010904//EN"
 "http://www.w3.org/TR/2001/REC-SVG-20010904/DTD/svg10.dtd">
<svg version="1.0" xmlns="http://www.w3.org/2000/svg"
 width="512.000000pt" height="512.000000pt" viewBox="0 0 512.000000 512.000000"
 preserveAspectRatio="xMidYMid meet">

<g transform="translate(0.000000,512.000000) scale(0.100000,-0.100000)"
fill="#000000" stroke="none">
<path d="M3665 5113 c-36 -10 -75 -44 -94 -81 -53 -106 -194 -463 -198 -503
-7 -65 23 -120 80 -148 55 -26 89 -27 144 0 55 27 69 50 179 314 75 179 88
218 89 267 0 60 -17 94 -66 130 -25 19 -100 31 -134 21z m99 -94 c19 -15 26
-30 26 -54 0 -42 -176 -467 -207 -501 -47 -51 -133 -18 -133 51 0 45 183 484
211 508 28 23 70 22 103 -4z"/>
<path d="M670 4831 c-159 -51 -275 -189 -300 -357 -7 -46 -10 -315 -8 -790 l3
-719 23 -56 c50 -123 140 -217 252 -261 47 -19 80 -22 235 -26 102 -2 185 -8
193 -14 9 -8 12 -63 12 -212 0 -230 7 -257 72 -289 69 -34 81 -26 329 218 154
152 241 231 275 248 65 33 145 47 266 47 l98 0 0 -702 c0 -387 4 -731 9 -765
18 -123 86 -231 187 -298 102 -68 105 -68 554 -74 l405 -6 68 -32 c60 -29 98
-62 295 -256 141 -139 237 -227 254 -231 38 -9 97 14 122 47 20 26 21 43 24
240 2 130 7 216 14 224 8 10 51 13 162 13 95 0 173 6 211 14 172 41 299 182
325 361 13 96 13 1399 -1 1485 -20 124 -85 229 -185 295 -111 74 -60 69 -851
75 l-713 5 -2 745 -3 745 -23 57 c-50 124 -137 214 -249 259 l-58 24 -970 2
c-906 2 -974 1 -1025 -16z m1934 -61 c154 -23 263 -118 302 -262 11 -43 14
-164 14 -613 0 -585 -2 -612 -44 -694 -26 -49 -103 -122 -161 -151 l-50 -25
-410 -6 c-337 -5 -417 -8 -451 -21 -115 -44 -148 -70 -369 -289 -122 -121
-228 -219 -236 -219 -35 0 -39 21 -39 222 0 304 3 300 -269 308 -175 5 -189 7
-243 32 -65 30 -137 98 -166 155 -39 77 -42 125 -42 691 0 610 1 620 66 717
56 85 144 140 248 155 79 12 1770 11 1850 0z m-2008 -1783 c79 -40 129 -49
309 -56 l170 -6 3 -115 3 -115 -178 3 c-144 3 -186 7 -228 23 -71 27 -128 71
-168 132 -43 66 -56 103 -64 191 l-6 71 55 -51 c30 -29 77 -63 104 -77z m2324
78 l0 -45 -47 0 -47 0 44 45 c24 25 45 45 47 45 2 0 3 -20 3 -45z m-679 -187
c-30 -31 -61 -76 -77 -113 l-27 -62 -146 -6 c-158 -5 -218 -20 -302 -72 -24
-15 -141 -124 -259 -241 -119 -118 -223 -214 -231 -214 -32 0 -39 23 -39 136
l0 111 25 -5 c54 -10 80 10 305 232 124 123 241 232 260 242 75 40 92 42 318
43 l224 1 -51 -52z m667 -30 c18 -18 14 -56 -7 -68 -12 -6 -95 -10 -201 -10
-197 0 -230 -7 -283 -58 -46 -44 -57 -104 -57 -303 0 -168 -1 -179 -20 -189
-14 -8 -26 -8 -40 0 -19 10 -20 21 -20 209 0 223 8 261 67 330 37 44 73 66
138 87 55 17 406 19 423 2z m570 -254 c23 -16 522 -1000 522 -1029 0 -29 -47
-65 -83 -65 -42 0 -49 8 -112 129 l-50 96 -310 0 -310 0 -52 -100 c-57 -107
-81 -135 -120 -135 -30 0 -83 50 -83 79 0 11 112 245 249 519 250 499 262 519
311 521 9 1 26 -6 38 -15z"/>
<path d="M1599 4521 c-363 -49 -615 -398 -545 -752 49 -246 230 -437 472 -499
136 -35 285 -22 416 37 l58 26 39 -36 c84 -76 215 -59 264 34 30 56 19 127
-28 185 -37 44 -38 48 -25 78 56 133 64 170 64 286 1 84 -4 131 -18 175 -57
188 -170 323 -341 405 -116 55 -238 76 -356 61z m192 -85 c254 -54 449 -292
449 -548 0 -91 -16 -160 -56 -245 -19 -39 -34 -79 -34 -87 0 -9 16 -33 35 -54
52 -58 65 -88 53 -123 -12 -36 -35 -49 -83 -49 -29 0 -45 9 -86 47 -46 43 -52
46 -77 36 -170 -70 -189 -76 -277 -81 -113 -6 -184 9 -283 58 -177 89 -297
270 -309 465 -14 222 113 435 318 533 126 61 224 74 350 48z"/>
<path d="M1555 4271 c-225 -78 -331 -328 -232 -545 45 -98 135 -175 246 -211
68 -22 199 -17 251 10 66 34 65 50 -2 121 -59 63 -66 98 -28 139 39 41 77 34
135 -25 68 -69 95 -69 124 3 11 28 23 70 27 92 8 56 -12 159 -46 224 -30 60
-105 138 -159 166 -92 47 -224 58 -316 26z m257 -88 c70 -31 137 -100 164
-168 19 -50 27 -176 11 -191 -4 -4 -20 4 -35 19 -73 70 -182 58 -240 -27 -39
-57 -27 -152 27 -200 12 -11 21 -23 21 -28 0 -4 -35 -8 -77 -8 -65 0 -88 5
-138 28 -68 33 -127 93 -158 161 -29 64 -29 188 0 252 57 126 193 206 328 191
22 -2 66 -16 97 -29z"/>
<path d="M3412 2288 c-5 -7 -49 -88 -96 -181 -72 -139 -85 -171 -76 -187 10
-19 21 -20 200 -20 177 0 190 1 200 19 8 16 -5 49 -71 178 -45 87 -88 168 -95
181 -16 24 -46 29 -62 10z"/>
<path d="M4360 4610 c-19 -10 -119 -103 -221 -207 -206 -207 -221 -231 -199
-312 13 -48 78 -110 118 -113 48 -2 86 4 112 17 39 21 397 387 409 418 53 138
-90 266 -219 197z m145 -103 c9 -22 10 -39 3 -57 -11 -30 -341 -365 -380 -386
-39 -20 -56 -18 -89 15 -54 54 -48 64 154 269 100 101 195 190 211 197 41 18
84 1 101 -38z"/>
<path d="M4870 3903 c-54 -20 -432 -179 -462 -194 -144 -73 -95 -301 64 -300
32 0 105 26 281 99 131 55 248 107 261 116 39 25 70 100 62 149 -16 96 -120
162 -206 130z m109 -99 c26 -33 27 -75 4 -103 -15 -17 -408 -190 -490 -215
-26 -8 -78 16 -87 39 -11 30 -6 73 12 94 24 29 456 209 504 210 28 1 41 -5 57
-25z"/>
<path d="M362 1610 c-128 -54 -243 -105 -256 -114 -39 -25 -70 -100 -62 -149
14 -84 89 -144 171 -134 36 4 402 150 497 198 146 74 96 301 -67 298 -40 0
-97 -21 -283 -99z m317 15 c45 -23 56 -84 24 -124 -23 -26 -463 -211 -504
-211 -63 0 -102 80 -62 129 17 19 470 217 506 220 4 1 21 -6 36 -14z"/>
<path d="M995 1140 c-51 -11 -64 -22 -262 -222 -205 -207 -213 -220 -200 -304
16 -98 128 -153 221 -109 18 9 119 102 223 208 209 211 225 235 204 315 -21
75 -109 128 -186 112z m86 -99 c54 -54 48 -64 -153 -269 -101 -101 -196 -190
-212 -197 -62 -27 -128 33 -104 95 10 28 327 352 373 381 41 26 62 24 96 -10z"/>
<path d="M1522 739 c-24 -12 -50 -32 -59 -45 -8 -13 -58 -126 -111 -251 -83
-196 -96 -236 -97 -285 0 -61 17 -93 68 -132 55 -41 175 -19 213 39 34 53 207
482 212 526 6 65 -24 120 -81 148 -55 27 -91 27 -145 0z m126 -79 c14 -14 22
-33 22 -55 0 -45 -183 -484 -211 -507 -48 -41 -129 -5 -129 57 0 44 183 484
211 508 29 23 80 22 107 -3z"/>
</g>
</svg>
